# xmcd
#
# Track frame offsets: 
#        150
#        13243
#        29287
#        50807
#        62939
#        81115
#        100652
#        118353
#        128431
#        156909
#        186599
#        211503
#        236838
#        255401
#        273680
#
# Disc length: 3839 seconds
#
# Revision: 1
# Processed by: cddbd v1.5.2PL0 Copyright (c) Steve Scherf et al.
# Submitted via: ExactAudioCopy v1.3
#
DISCID=d80efd0f
DTITLE=Various Artist - Mojo Presents How Soon Is Now?
DYEAR=2016
DGENRE=Rock
TTITLE0=White Lung - Hungry
TTITLE1=Meilyr Jones - How To Recognise A Work Of Art
TTITLE2=Ezra Furman - Haunted Head
TTITLE3=Hooton Tennis Club - P.O.W.E.R.F.U.L P.I.E.R.R.E
TTITLE4=The Fall - Venice With Girls
TTITLE5=Lush - Out Of Control
TTITLE6=Beach House - Majorette
TTITLE7=On Dead Waves - California
TTITLE8=Ian William Craig - A Single Hope
TTITLE9=Explosions In The Sky - Logic Of A Dream
TTITLE10=Julianna Barwick - Nebula
TTITLE11=Let's Eat Grandma - Deep Six Textbook
TTITLE12=Throws - The Harbour
TTITLE13=Destroyer - Blue Eyes
TTITLE14=Haley Bonar - I Can Change
EXTD=
EXTT0=
EXTT1=
EXTT2=
EXTT3=
EXTT4=
EXTT5=
EXTT6=
EXTT7=
EXTT8=
EXTT9=
EXTT10=
EXTT11=
EXTT12=
EXTT13=
EXTT14=
PLAYORDER=
